<svg width="176" height="31" viewBox="0 0 176 31" fill="none" xmlns="http://www.w3.org/2000/svg">
<g clip-path="url(#clip0_13166_23366)">
<path d="M19.4403 27.7425C19.4403 27.8517 19.2218 27.9063 18.785 27.9063H15.1263C14.5256 27.9063 14.4164 27.8517 14.4164 27.7425C14.4164 27.5241 15.8908 27.6879 15.8908 26.8688C15.8908 26.705 15.8362 26.4865 15.7816 26.3773L13.9249 20.3159L9.99317 27.3057C9.77474 27.7425 9.39249 28.1248 8.95563 28.1248C8.68259 28.1248 8.46416 27.9609 8.30034 27.6879L4.64164 20.3705L2.8942 25.7766C2.78498 26.1589 2.67577 26.4865 2.67577 26.7596C2.67577 27.1964 2.94881 27.5241 3.76792 27.5241C3.98635 27.5241 4.15017 27.6333 4.15017 27.6879C4.15017 27.7971 4.04096 27.8517 3.76792 27.8517H0.327645C0.109215 27.8517 0 27.7971 0 27.7425C0 27.6333 0.109215 27.5787 0.273038 27.5241H0.546075C1.14676 27.4695 1.4744 26.7596 1.63823 26.1043L3.44027 20.4251C3.49488 20.2613 3.54949 20.0429 3.54949 19.7698C3.54949 18.5685 1.80205 18.8415 1.80205 18.5685C1.80205 18.4046 2.02048 18.35 2.23891 18.35H4.3686C5.18771 18.35 5.46075 18.4046 5.95222 19.1145L9.50171 26.0497L13.4334 19.0599C13.7611 18.4046 14.3618 18.35 14.8532 18.35H16.7099C17.256 18.35 17.4198 18.4046 17.4198 18.5138C17.4198 18.8961 15.727 18.5138 15.727 19.6606C15.727 19.879 15.727 20.0429 15.7816 20.2067L17.8567 26.7596C18.0205 27.3057 18.5666 27.4149 18.8942 27.5241C19.2218 27.5241 19.4403 27.5787 19.4403 27.7425ZM52.9147 28.234C51.1672 28.234 50.5666 28.1248 48.9283 27.7971C48.6007 27.7971 48.4369 27.7971 48.4369 27.0326V26.9234C48.4369 26.5412 48.4369 25.6674 48.5461 25.1214C48.6007 24.9575 48.6553 24.6845 48.7645 24.6845C48.9283 24.6845 48.9829 25.3944 49.0375 25.6128C49.3106 26.4319 49.6928 26.978 50.4573 27.1964C50.8396 27.3057 51.4949 27.3603 52.1502 27.3603C53.1331 27.3603 56.1911 27.2511 56.1911 25.5582C56.1911 24.0292 54.1707 23.7016 53.1331 23.5377L51.7679 23.4285C50.2935 23.2647 48.1092 22.8825 48.1092 20.6435C48.1092 18.7869 50.785 18.077 52.7509 18.077C54.6075 18.077 55.1536 18.1862 56.901 18.5138C57.2287 18.5138 57.3925 18.5138 57.3925 19.2784V19.3876C57.3925 19.7698 57.3925 20.6435 57.2833 21.135C57.2287 21.2988 57.1741 21.5173 57.0648 21.5173C56.901 21.5173 56.8464 20.8074 56.7918 20.5889C56.3549 19.1691 55.5358 18.8415 52.9693 18.8415C52.2048 18.8415 49.9113 19.1145 49.9113 20.3159C49.9113 21.5173 51.058 21.6265 51.9863 21.7357C52.1502 21.7357 52.3686 21.7903 52.587 21.7903C54.5529 22.0633 57.9386 22.5002 57.9386 24.8483C57.884 27.6333 54.9352 28.234 52.9147 28.234ZM60.2867 19.9883C60.2867 18.1862 58.6485 19.0053 58.6485 18.5138C58.6485 18.35 58.9215 18.35 59.1399 18.35H67.7133C68.3686 18.35 68.4232 18.35 68.6416 18.2954C68.9693 18.2954 69.0239 18.2954 69.0239 18.6231V18.7869C69.0239 19.1691 68.7509 20.8074 68.4778 20.8074C68.2048 20.8074 68.2594 20.6435 68.2594 20.4797C68.1502 19.1691 67.3857 19.1145 65.6928 19.1145H64.6007C64 19.1145 62.198 19.0053 62.198 19.4968V22.3364H66.1843C67.1126 22.1726 66.5666 21.0804 67.1672 21.0804C67.3311 21.0804 67.4949 21.2442 67.4949 21.5173V23.8108C67.4949 24.1384 67.3311 24.3022 67.1672 24.3022C66.6212 24.3022 67.1672 23.3739 66.2389 23.0463H62.198V26.705C62.198 26.9234 62.3618 26.9234 62.471 26.9234C63.7816 27.0326 64.4915 27.0326 65.1468 27.0326H65.802C67.1126 27.0326 68.7509 26.9234 68.7509 25.5036C68.7509 25.2306 69.1877 25.2306 69.2969 25.449C69.2969 26.2681 69.2969 27.7971 67.9864 27.7971H59.2491C58.9761 27.7971 58.7577 27.7971 58.7577 27.6333C58.7577 27.2511 59.9044 27.6333 60.2867 26.9234C60.3413 26.7596 60.3959 26.4319 60.3959 25.8313L60.2867 19.9883ZM80.7645 23.4831C82.1843 22.2272 83.6041 21.0258 85.0239 19.8244C85.2969 19.5514 85.4608 19.333 85.4608 19.1691C85.4608 18.7869 84.7509 18.7869 84.7509 18.5138C84.7509 18.4592 84.8055 18.4046 85.0239 18.4046H88.4642C88.5734 18.4046 88.7372 18.5138 88.7372 18.5685C88.7372 18.6231 88.6826 18.6777 88.5188 18.7323C87.6997 18.9507 86.7167 19.5514 86.0614 20.2067L84.5324 21.5719C84.8055 21.8995 85.0239 22.2818 85.2423 22.664C86.3891 24.4115 87.6451 26.1589 89.1741 27.5241C89.6655 27.9609 90.7031 28.6708 91.3584 28.7255C91.7952 28.8893 91.959 28.7801 91.959 28.9439C91.959 29.0531 91.686 29.1077 91.3584 29.1077C87.5358 29.1077 85.8976 26.705 83.9317 23.92L83.1126 22.7732L80.8737 24.7391V26.0497C80.8737 26.6504 80.9283 26.9234 80.9829 27.0872C81.1468 27.4149 81.6382 27.5787 81.9113 27.5787C81.9659 27.5787 82.512 27.6333 82.512 27.7971C82.512 27.9609 82.2389 27.9609 82.0205 27.9609H77.9249C77.6519 27.9609 77.4334 27.9609 77.4334 27.7971C77.4334 27.6333 77.9795 27.5787 78.0341 27.5787C78.3072 27.5787 78.7986 27.4149 78.9625 27.0872C79.0171 26.9234 79.0717 26.5958 79.0717 25.9951V20.2067C79.0717 19.6606 79.0171 19.3876 78.9625 19.2237C78.7986 18.8961 78.3072 18.7323 78.0341 18.7323C77.9795 18.7323 77.4334 18.6777 77.4334 18.5138C77.4334 18.35 77.7065 18.35 77.9249 18.35H82.0205C82.2935 18.35 82.512 18.35 82.512 18.5138C82.512 18.6777 81.9659 18.7323 81.9113 18.7323C81.6382 18.7323 81.1468 18.8961 80.9829 19.2237C80.9283 19.3876 80.8737 19.7152 80.8737 20.3159V23.4831H80.7645ZM102.99 27.7971C102.99 28.1248 102.717 28.1794 102.334 28.1794C101.952 28.1794 101.461 28.0702 101.352 27.9063L92.8328 19.9336V25.8859C92.8328 26.5412 92.8874 26.8142 92.942 26.978C93.1058 27.3057 93.5973 27.4695 93.8703 27.4695C93.9249 27.4695 94.471 27.5241 94.471 27.6879C94.471 27.8517 94.198 27.8517 93.9795 27.8517H90.7031C90.4846 27.8517 90.2116 27.8517 90.2116 27.6879C90.2116 27.5241 90.7577 27.4695 90.8123 27.4695C91.0853 27.4695 91.5768 27.3057 91.7406 26.978C91.7952 26.8142 91.8498 26.4865 91.8498 25.8859V20.4797C91.8498 19.3876 91.7406 19.0053 90.8123 18.7869L90.6485 18.7323C90.3754 18.6777 90.157 18.6231 90.157 18.5685C90.157 18.4046 90.5939 18.4046 90.9215 18.4046H92.7782C93.8703 18.4046 94.5256 19.1145 95.1809 19.7152L102.061 26.1043V20.3705C102.061 19.7152 102.007 19.4422 101.952 19.2784C101.788 18.9507 101.297 18.7869 101.024 18.7869C100.969 18.7869 100.423 18.7323 100.423 18.5685C100.423 18.4046 100.696 18.4046 100.915 18.4046H104.191C104.464 18.4046 104.683 18.4046 104.683 18.5685C104.683 18.7323 104.137 18.7869 104.082 18.7869C103.809 18.7869 103.317 18.9507 103.154 19.2784C103.099 19.4422 103.044 19.7698 103.044 20.3705L102.99 27.7971ZM106.812 23.2101V19.9883C106.812 19.5514 106.758 19.333 106.703 19.2237C106.539 18.8961 106.048 18.7323 105.775 18.7323C105.72 18.7323 105.174 18.6777 105.174 18.5138C105.174 18.35 105.447 18.35 105.666 18.35H109.761C110.034 18.35 110.253 18.35 110.253 18.5138C110.253 18.6777 109.706 18.7323 109.652 18.7323C109.379 18.7323 108.887 18.8961 108.724 19.2237C108.669 19.333 108.614 19.606 108.614 19.9883V23.1009C108.614 25.3398 110.253 27.4149 112.382 27.4149C114.348 27.4149 116.041 25.5036 116.041 23.4285V20.4251C116.041 19.7698 115.986 19.4968 115.932 19.333C115.768 19.0053 115.276 18.8415 115.003 18.8415C114.949 18.8415 114.403 18.7869 114.403 18.6231C114.403 18.4592 114.676 18.4592 114.894 18.4592H118.171C118.444 18.4592 118.662 18.4592 118.662 18.6231C118.662 18.7869 118.116 18.8415 118.061 18.8415C117.788 18.8415 117.297 19.0053 117.133 19.333C117.078 19.4422 117.024 19.7152 117.024 20.0975V22.8825C117.024 23.3193 117.024 23.7016 116.969 24.0838C116.642 26.5958 114.348 28.234 111.836 28.234C109.87 28.234 107.795 27.1964 107.031 25.3398C106.976 24.6845 106.812 23.92 106.812 23.2101ZM120.41 23.1555C120.41 25.722 122.922 27.4149 125.215 27.4149C127.181 27.4149 128.874 26.9234 129.529 24.7937C129.584 24.6845 129.693 24.6845 129.747 24.6845C130.075 24.6845 130.075 25.9405 130.075 26.5412V26.8142C130.075 27.6333 129.911 27.5787 129.529 27.5787H129.474C128.273 27.9609 126.853 28.234 125.433 28.234C122.539 28.234 118.225 26.8142 118.225 23.1555C118.225 19.8244 122.212 18.077 125.16 18.077C126.58 18.077 128.055 18.35 129.42 18.7869H129.474C129.802 18.7869 130.02 18.7869 130.02 19.5514V19.9336C130.02 20.5343 129.966 21.6811 129.693 21.6811C129.638 21.6811 129.584 21.6265 129.474 21.5719C128.874 19.4968 127.399 18.8961 125.27 18.8961C123.195 18.8415 120.41 20.3705 120.41 23.1555ZM134.225 23.4831C135.645 22.2272 137.065 21.0258 138.485 19.8244C138.758 19.5514 138.922 19.333 138.922 19.1691C138.922 18.7869 138.212 18.7869 138.212 18.5138C138.212 18.4592 138.266 18.4046 138.485 18.4046H141.925C142.034 18.4046 142.198 18.5138 142.198 18.5685C142.198 18.6231 142.143 18.6777 141.98 18.7323C141.16 18.9507 140.177 19.5514 139.522 20.2067L137.993 21.5719C138.266 21.8995 138.485 22.2818 138.703 22.664C139.85 24.4115 141.106 26.1589 142.635 27.5241C143.126 27.9609 144.164 28.6708 144.819 28.7255C145.256 28.8893 145.42 28.7801 145.42 28.9439C145.42 29.0531 145.147 29.1077 144.819 29.1077C140.997 29.1077 139.358 26.705 137.393 23.92L136.573 22.7732L134.334 24.7391V26.0497C134.334 26.6504 134.389 26.9234 134.444 27.0872C134.608 27.4149 135.099 27.5787 135.372 27.5787C135.427 27.5787 135.973 27.6333 135.973 27.7971C135.973 27.9609 135.7 27.9609 135.481 27.9609H131.386C131.113 27.9609 130.894 27.9609 130.894 27.7971C130.894 27.6333 131.44 27.5787 131.495 27.5787C131.768 27.5787 132.259 27.4149 132.423 27.0872C132.478 26.9234 132.532 26.5958 132.532 25.9951V20.2067C132.532 19.6606 132.478 19.3876 132.423 19.2237C132.259 18.8961 131.768 18.7323 131.495 18.7323C131.44 18.7323 130.894 18.6777 130.894 18.5138C130.894 18.35 131.167 18.35 131.386 18.35H135.481C135.754 18.35 135.973 18.35 135.973 18.5138C135.973 18.6777 135.427 18.7323 135.372 18.7323C135.099 18.7323 134.608 18.8961 134.444 19.2237C134.389 19.3876 134.334 19.7152 134.334 20.3159V23.4831H134.225ZM145.365 20.0975C145.365 19.606 145.311 19.333 145.256 19.2237C145.092 18.8961 144.601 18.7323 144.328 18.7323C144.273 18.7323 143.727 18.6777 143.727 18.5138C143.727 18.35 144 18.35 144.218 18.35H148.314C148.587 18.35 148.805 18.35 148.805 18.5138C148.805 18.6777 148.259 18.7323 148.205 18.7323C147.932 18.7323 147.44 18.8961 147.276 19.2237C147.222 19.333 147.167 19.6606 147.167 20.0975V26.3773C147.167 26.705 147.167 26.978 147.386 26.978C148.314 26.978 149.788 27.0872 150.935 27.0872C151.481 27.0872 152.137 27.0872 152.737 26.9234C153.338 26.8142 153.611 26.5958 153.884 26.0497C154.048 25.6674 154.157 25.2852 154.266 25.0121C154.321 24.8483 154.375 24.8483 154.485 24.8483C154.539 24.8483 154.594 24.9029 154.594 25.0121L154.375 27.0872C154.321 27.9063 152.464 27.7971 151.809 27.7971H144.218C143.945 27.7971 143.727 27.7971 143.727 27.6333C143.727 27.4695 144.273 27.4149 144.328 27.4149C144.601 27.4149 145.092 27.2511 145.256 26.9234C145.311 26.7596 145.365 26.4319 145.365 25.8313V20.0975ZM156.341 19.9883C156.341 18.1862 154.703 19.0053 154.703 18.5138C154.703 18.35 154.976 18.35 155.195 18.35H163.659C164.314 18.35 164.369 18.35 164.587 18.2954C164.915 18.2954 164.969 18.2954 164.969 18.6231V18.7869C164.969 19.1691 164.696 20.8074 164.423 20.8074C164.15 20.8074 164.205 20.6435 164.205 20.4797C164.096 19.1691 163.331 19.1145 161.638 19.1145H160.546C159.945 19.1145 158.143 19.0053 158.143 19.4968V22.3364H162.13C163.058 22.1726 162.512 21.0804 163.113 21.0804C163.276 21.0804 163.44 21.2442 163.44 21.5173V23.8108C163.44 24.1384 163.276 24.3022 163.113 24.3022C162.567 24.3022 163.113 23.3739 162.184 23.0463H158.143V26.705C158.143 26.9234 158.307 26.9234 158.416 26.9234C159.727 27.0326 160.437 27.0326 161.092 27.0326H161.747C163.058 27.0326 164.696 26.9234 164.696 25.5036C164.696 25.2306 165.133 25.2306 165.242 25.449C165.242 26.2681 165.242 27.7971 163.932 27.7971H155.195C154.922 27.7971 154.703 27.7971 154.703 27.6333C154.703 27.2511 155.85 27.6333 156.232 26.9234C156.287 26.7596 156.341 26.4319 156.341 25.8313V19.9883ZM171.031 28.234C169.283 28.234 168.683 28.1248 167.044 27.7971C166.717 27.7971 166.553 27.7971 166.553 27.0326V26.9234C166.553 26.5412 166.553 25.6674 166.662 25.1214C166.717 24.9575 166.771 24.6845 166.881 24.6845C167.044 24.6845 167.099 25.3944 167.154 25.6128C167.427 26.4319 167.809 26.978 168.573 27.1964C168.956 27.3057 169.611 27.3603 170.266 27.3603C171.249 27.3603 174.307 27.2511 174.307 25.5582C174.307 24.0292 172.287 23.7016 171.249 23.5377L169.939 23.3739C168.464 23.2101 166.28 22.8278 166.28 20.5889C166.28 18.7323 168.956 18.0224 170.922 18.0224C172.778 18.0224 173.324 18.1316 175.072 18.4592C175.399 18.4592 175.563 18.4592 175.563 19.2237V19.333C175.563 19.7152 175.563 20.5889 175.454 21.0804C175.399 21.2442 175.345 21.4627 175.236 21.4627C175.072 21.4627 175.017 20.7528 174.962 20.5343C174.526 19.1145 173.706 18.7869 171.14 18.7869C170.321 18.7869 168.082 19.0599 168.082 20.2613C168.082 21.4627 169.229 21.5719 170.157 21.6811C170.321 21.6811 170.539 21.7357 170.758 21.7357C172.724 22.0087 176.109 22.4456 176.109 24.7937C176 27.6333 173.051 28.234 171.031 28.234ZM45.5427 18.4046C44.3959 16.2749 42.5392 13.2715 40.4096 10.2681C36.7509 5.18962 33.529 2.02238 33.529 2.02238C33.529 10.5958 33.529 11.5787 33.529 18.4592C33.529 19.2784 33.4744 21.0804 33.6928 22.9917C34.1843 27.9063 37.57 29.49 40.5188 29.4354C44.1229 29.3807 46.7986 26.4865 46.8532 22.9917C46.7986 20.862 46.0341 19.2784 45.5427 18.4046ZM40.1911 27.6333C37.57 27.6333 35.4403 25.449 35.4403 22.7186C35.4403 19.9883 37.57 17.804 40.1911 17.804C42.8123 17.804 44.942 19.9883 44.942 22.7186C44.9966 25.3944 42.8669 27.6333 40.1911 27.6333ZM19.1126 22.9371C19.1672 26.4319 21.7884 29.3807 25.4471 29.3807C28.3959 29.4354 31.7816 27.8517 32.2184 22.9371C32.3823 21.0804 32.3823 19.2237 32.3823 18.4046C32.3823 11.5241 32.3823 10.5412 32.3823 1.96777C32.3823 1.96777 29.1604 5.13501 25.5017 10.2681C23.372 13.2715 21.5154 16.2749 20.3686 18.4046C19.8771 19.2784 19.1126 20.862 19.1126 22.9371ZM20.9147 22.664C20.9147 19.9336 23.0444 17.7493 25.6655 17.7493C28.2867 17.7493 30.4164 19.9336 30.4164 22.664C30.4164 25.3944 28.2867 27.5787 25.6655 27.5787C23.0444 27.6333 20.9147 25.3944 20.9147 22.664Z" fill="black"/>
</g>
<defs>
<clipPath id="clip0_13166_23366">
<rect width="176" height="30.0341" fill="white" transform="translate(0 0.493164)"/>
</clipPath>
</defs>
</svg>
